<svg xmlns="http://www.w3.org/2000/svg" viewBox="0 0 800 588.76"><defs><style>.cls-1{fill:#7230b4;}</style></defs><g id="Layer_2" data-name="Layer 2"><g id="Layer_1-2" data-name="Layer 1"><path class="cls-1" d="M754.79,0H45.21A45.27,45.27,0,0,0,0,45.21v65.55A45.27,45.27,0,0,0,45.21,156H754.79A45.27,45.27,0,0,0,800,110.76V45.21A45.27,45.27,0,0,0,754.79,0Z"/><path class="cls-1" d="M754.79,216.39H45.21A45.27,45.27,0,0,0,0,261.61v65.55a45.27,45.27,0,0,0,45.21,45.21H754.79A45.27,45.27,0,0,0,800,327.16V261.61A45.27,45.27,0,0,0,754.79,216.39Z"/><path class="cls-1" d="M754.79,432.78H45.21A45.27,45.27,0,0,0,0,478v65.55a45.27,45.27,0,0,0,45.21,45.21H754.79A45.27,45.27,0,0,0,800,543.55V478A45.27,45.27,0,0,0,754.79,432.78Z"/></g></g></svg>